<svg xmlns="http://www.w3.org/2000/svg" width="512.007" height="206" viewBox="0 0 512.007 206"><g transform="translate(0 -153.003)" opacity="0.65"><path d="M128.006,247a71.048,71.048,0,0,1,61.548,35.643c11.857-22.818,22.8-43.857,22.722-43.7a38.931,38.931,0,0,0,2.878-28.735c-1.88-6.534-4.629-16.087-8.732-30.35a15,15,0,0,0-28.833,8.29l8.141,28.295a268.645,268.645,0,0,0-54.785-13.109A46.314,46.314,0,0,0,135,184.894c.143-8.305-6.336-15.7-14.64-15.887a15,15,0,0,0-15.352,15c0,10.471-8.812,15.568-12.47,17.233-1.056.18-27.651,5.505-80.468,16.058a15.008,15.008,0,0,0-7.449,25.53L20.06,257.648,8.927,272.559A15,15,0,0,0,7.561,288.3,70.151,70.151,0,0,0,57.442,325.8,71.058,71.058,0,0,1,128.006,247Z" fill="#fff"/><circle cx="41" cy="41" r="41" transform="translate(87.006 277.003)" fill="#fff"/><path d="M504.734,243.667c-49.715-29.883-110.992-44.27-162.8-42.953L298.613,157.4A15,15,0,0,0,277.4,178.61L312.194,213.4a129.042,129.042,0,0,1-61.176,16.063c-41.184,79.195-30.4,58.106-50.15,97.536H313.6a70.989,70.989,0,1,1,140.976-1.23,70.583,70.583,0,0,0,57.434-69.25,15,15,0,0,0-7.273-12.856Z" fill="#fff"/><circle cx="41" cy="41" r="41" transform="translate(343.006 277.003)" fill="#fff"/></g></svg>