<svg xmlns="http://www.w3.org/2000/svg" width="512.008" height="238" viewBox="0 0 512.008 238"><g transform="translate(0 -137.004)" opacity="0.65"><path d="M203.847,205.319,183.353,137H170.73a75.106,75.106,0,0,0-55.747,24.828L75.844,205.32h128Z" fill="#fff"/><path d="M333.017,184.154l8.47,21.17H235.167L214.677,137h48.71a74.638,74.638,0,0,1,69.63,47.15Z" fill="#fff"/><circle cx="41" cy="41" r="41" transform="translate(343.007 293.004)" fill="#fff"/><path d="M335.263,235.319H239.007V251.9A15.279,15.279,0,0,1,224.732,267.3a15,15,0,0,1-15.725-14.983v-17H26.883A26.759,26.759,0,0,0,.007,262c0,1.053,0,2.048-.007,3H16.584a15.279,15.279,0,0,1,15.407,14.275A15,15,0,0,1,17.008,295H3.692a70.85,70.85,0,0,0,53.749,46.774A70.989,70.989,0,1,1,198.417,343H313.6a70.989,70.989,0,1,1,140.976-1.23,70.583,70.583,0,0,0,57.434-69.25,21.688,21.688,0,0,0-19.544-21.582Z" fill="#fff"/><circle cx="41" cy="41" r="41" transform="translate(87.007 293.004)" fill="#fff"/></g></svg>