<svg xmlns="http://www.w3.org/2000/svg" width="511.837" height="278.006" viewBox="0 0 511.837 278.006"><g transform="translate(0 -116.915)" opacity="0.65"><path d="M91.72,182.2l13.058-65.282H40.018A15,15,0,0,0,25.7,127.442c-7.939,25.4-13.382,42.811-17.117,54.757H91.72Z" fill="#fff"/><path d="M235.179,182.2c112.975,0,99.542-.094,105.194.216l-7.341-18.353A74.642,74.642,0,0,0,263.4,116.915h-47.8Z" fill="#fff"/><path d="M203.858,182.2l-19.584-65.282h-48.9L122.316,182.2Z" fill="#fff"/><path d="M89.018,262.275V212.2H.047c-.058,3.971-.05,13.991-.039,40.718H17.019a15,15,0,1,1,0,30h-17c0,5.854,0,12.163,0,19A45.053,45.053,0,0,0,42.4,346.833a86.012,86.012,0,0,1,46.62-84.558Z" fill="#fff"/><path d="M495.018,282.915a15,15,0,0,1-14.983-15.725,15.279,15.279,0,0,1,15.407-14.275h12.184c-1.364-4.57-3.409-11.328-6.549-21.739a15.01,15.01,0,0,0-13.543-10.654L335.607,212.2h-96.59v16.576a15.279,15.279,0,0,1-14.275,15.407A15,15,0,0,1,209.017,229.2v-17h-90v41.188c53.854-5.641,99.627,39.415,94.615,93.53H298.4a85.982,85.982,0,1,1,171.547-5.3,69.459,69.459,0,0,0,41.887-58.7Z" fill="#fff"/><path d="M375.849,394.313A56.051,56.051,0,0,0,435.334,361.3c16.162-36.931-11.081-78.39-51.315-78.39a56,56,0,0,0-8.17,111.4Z" fill="#fff"/><path d="M128.018,282.915a55.992,55.992,0,1,0,55.42,64,56.048,56.048,0,0,0-55.42-64Z" fill="#fff"/></g></svg>